<svg id="Слой_1" data-name="Слой 1" xmlns="http://www.w3.org/2000/svg" viewBox="0 0 158.21 255.81"><defs><style>.cls-1{fill:#ffcf05;}.cls-2{fill:#3daa3a;}</style></defs><title>Иконка</title><path class="cls-1" d="M173.61,201.87a190.71,190.71,0,0,1-48.45,48.93,125.77,125.77,0,0,0,11.77-43.74q3.06-7.45,6-14.83C152.56,195.72,162.87,199,173.61,201.87Z" transform="translate(-48.84 -0.19)"/><path class="cls-1" d="M152.05,150.93c-5.33,13.76-9.91,24.7-13.82,33.37l-1.53-.48a126.35,126.35,0,0,0-4.13-21.56,127.17,127.17,0,0,0-7-19q.62-1.56,1.2-3.09C134.28,143.64,142.79,147.33,152.05,150.93Z" transform="translate(-48.84 -0.19)"/><path class="cls-1" d="M134.36,107.52c-3.91,9.9-7.57,18.9-11,27.07l-3-1.16h0a122.24,122.24,0,0,0-13.2-18.75c2.39-6.17,4.57-12.06,6.52-17.56C118.31,99.58,125.36,103.28,134.36,107.52Z" transform="translate(-48.84 -0.19)"/><path class="cls-1" d="M157.54,153a376.26,376.26,0,0,0,35.91,11.45,189.85,189.85,0,0,1-14.65,29.38c-7.27-.64-17.92-2.67-33.65-7.4C149.55,175.12,153.68,163.91,157.54,153Z" transform="translate(-48.84 -0.19)"/><path class="cls-1" d="M202.94,133q-1.35,6.39-3.14,12.77-1.49,5.29-3.26,10.43c-8-.86-19.71-3.26-37-8.74,3.07-8.79,6-17.36,8.66-25.65C178.88,125.75,190.57,129.63,202.94,133Z" transform="translate(-48.84 -0.19)"/><path class="cls-1" d="M199.85,41.69c-1.33-4.74-2.86-9.42-4.55-14-.83,3.32-1.82,7.28-3,11.78C194.91,40.23,197.41,41,199.85,41.69Z" transform="translate(-48.84 -0.19)"/><path class="cls-1" d="M185.67,64q10.92,3.9,20,6.81A190.26,190.26,0,0,0,201,46.11c-3.37-1.25-6.55-2.49-9.51-3.67C189.88,48.72,187.93,56,185.67,64Z" transform="translate(-48.84 -0.19)"/><path class="cls-1" d="M148.11,79.8c-2.59,7.93-5.53,16.72-8.84,26.18,9.66,3.57,18.31,6.56,26,9.08q3.83-10.82,8.06-23.22C163.56,87.55,155,83.36,148.11,79.8Z" transform="translate(-48.84 -0.19)"/><path class="cls-1" d="M104,111c2.15-4.86,4.37-10,6.7-15.57-1.81-1-2.75-1.57-2.75-1.57,1,.39,2,.78,2.91,1.18,5.08-12.07,10.62-25.78,16.65-41.31-.29,1.1-4.68,18-13.4,42.6q11.45,4.57,21.44,8.3,4.78-12.14,10.06-26.09v0c-10.17-5.34-16.16-9-16.54-9.28q9.12,3.89,17.32,7.23,4.1-10.86,8.51-22.85c-4.51-2.41-7.1-4-7.4-4.13,2.64,1.07,5.24,2.09,7.78,3.1Q158,44.89,161,36.78c-.26,1-1.8,6.79-4.6,16.22h0c9.67,3.8,18.51,7.15,26.6,10.08q3.33-10.22,6.9-21.32c-14.78-6-23.91-10.66-24.63-11Q179,35.35,190.8,39c1.3-4.11,2.65-8.32,4-12.62v0c-2.19-5.88-4.7-11.63-7.46-17.25a15.88,15.88,0,0,0-22.73-6.42A191,191,0,0,0,88,96.29,127,127,0,0,1,104,111Z" transform="translate(-48.84 -0.19)"/><path class="cls-1" d="M128.15,136.42c9.7,3.69,18.31,6.75,25.92,9.25,2.94-7.7,6.09-16.22,9.47-25.66-9.44-3.65-18-7.34-25.43-10.75C135.09,117.84,131.76,126.94,128.15,136.42Z" transform="translate(-48.84 -0.19)"/><path class="cls-1" d="M169.88,116.51a282.8,282.8,0,0,0,34.49,8.88,188.92,188.92,0,0,0,2.34-20.5c-10.66-3.64-20.62-7.56-29.62-11.42C174.86,100.81,172.46,108.51,169.88,116.51Z" transform="translate(-48.84 -0.19)"/><path class="cls-1" d="M148.85,77.43c9.52,3.87,18.15,7.22,26,10.09q3.36-9.88,6.95-20.81c-11-4.87-19.78-9.34-25.73-12.51C154.17,60.54,151.78,68.38,148.85,77.43Z" transform="translate(-48.84 -0.19)"/><path class="cls-1" d="M206.3,76.77c-7.86-2.94-15.14-6-21.72-8.83q-2.78,9.78-6.11,20.91c11.11,4,20.54,7,28.51,9.31A187.76,187.76,0,0,0,206.3,76.77Z" transform="translate(-48.84 -0.19)"/><path class="cls-2" d="M132.49,196.41a121.09,121.09,0,0,1-3.64,29.7v0A121.29,121.29,0,0,1,120,250.36a10.08,10.08,0,0,1-14.44,4.08,117.23,117.23,0,0,1-12.33-8.94A121.78,121.78,0,0,1,61.35,97.79a10.08,10.08,0,0,1,14.44-4.08,118.61,118.61,0,0,1,10.43,7.41,120.18,120.18,0,0,1,15.58,14.7c1.19,1.3,2.33,2.65,3.41,4A118.55,118.55,0,0,1,113,130.45h0c.92,1.41,1.82,2.88,2.68,4.34v0q2.31,3.88,4.3,8v0c1.09,2.21,2.13,4.48,3.09,6.79a123.09,123.09,0,0,1,4.86,14,124.51,124.51,0,0,1,3.73,18.56c.25,2,.44,4,.59,6.07v0C132.38,191,132.49,193.68,132.49,196.41Z" transform="translate(-48.84 -0.19)"/></svg>